<?xml version="1.0" encoding="utf-8"?>
<!-- Generator: Adobe Illustrator 16.0.0, SVG Export Plug-In . SVG Version: 6.00 Build 0)  -->
<!DOCTYPE svg PUBLIC "-//W3C//DTD SVG 1.1//EN" "http://www.w3.org/Graphics/SVG/1.1/DTD/svg11.dtd">
<svg version="1.1" id="Layer_1" xmlns="http://www.w3.org/2000/svg" xmlns:xlink="http://www.w3.org/1999/xlink" x="0px" y="0px"
	 width="1024px" height="768px" viewBox="0 0 1024 768" enable-background="new 0 0 1024 768" xml:space="preserve">
<rect x="-7" y="-10" width="1038" height="788"/>
<g>
	<path fill-rule="evenodd" clip-rule="evenodd" fill="#FFFFFF" d="M834.58,404.094c-2.471,0-4.941,0.043-7.418-0.008
		c-37.967-0.742-76.01,1.123-113.871-3.801c-1.736-0.227-3.223-0.527-4.541-0.988c-0.607,0.109-1.219,0.203-1.832,0.279
		c-4.299-6.078-8.104-12.111-13.254-16.583c-4.705-4.082-8.59-7.121-9.266-13.515c-0.07-0.661-0.738-1.478-1.492-1.478h-0.529
		c-0.686,0-1.377,0-2.074,0h-0.154c-0.646,0-1.256,0.933-1.484,1.656c-0.242,0.238-0.439,0.314-0.566,0.604
		c-1.18,2.693-1.432,5.701-2.619,8.39c-1,2.264-2.057,4.435-3.154,6.625c-5.52,9.117-13.566,15.905-24.404,20.226
		c-5.23,2.082-10.775,2.563-14.439-0.816c4.912-7.885,9.688-14.916,13.76-22.327c2.412-4.391,0.49-11.273-2.992-12.492
		c-4.861-1.703-8.428,0.911-10.939,4.721c-4.674,7.092-6.906,14.859-5.639,23.468c0.186,1.242-0.066,3.383-0.828,3.797
		c-5.717,3.125-11.797,5.27-18.26,2.484c-8.037-3.465-8.885-11.199-3.385-17.426c6.613-7.491,12.955-15.513,17.748-24.223
		c3.24-5.884,4.623-13.313,4.877-20.124c0.104-2.793-1.582-5.654-3.291-8.547c-0.867-0.43-1.711-0.917-2.525-1.447
		c-1.234-0.803-2.432-1.651-3.666-2.414c-0.721-0.026-1.441-0.047-2.162-0.065c-9.24,2.14-13.693,7.975-15.596,19.271
		c-1.705,10.135-3.832,20.512-3.242,30.633c0.576,9.894-4.502,14.3-11.521,18.302c-2.426,1.383-5.082,2.551-7.781,3.254
		c-1.221,0.867-2.809,1.012-4.141,0.596c-3.697,0.035-6.889-1.385-9.098-4.359c3.697-3.65,7.34-6.92,10.631-10.404
		c0.656-2.006,1.363-3.993,2.211-5.901c-0.107-3.029-0.887-6.866-1.578-7.593c-2.965-3.124-6.99-2.692-10.221-0.031
		c-5.053,4.159-8.092,9.179-6.111,16.226c0.471,1.672,0.037,4.975-0.957,5.445c-4.373,2.049-9.104,3.336-13.705,4.898
		c-0.203-0.492-0.406-0.986-0.609-1.477c0.703-0.512,1.436-0.99,2.107-1.539c5.123-4.18,6.717-13.292,2.787-17.568
		c-4.969-5.409-9.371-6.471-17.074-0.315c-2.602,2.076-4.533,4.989-6.771,7.52c0.764-2.787,2.494-5.142,3.027-7.744
		c0.293-1.439-1.051-3.829-2.379-4.74c-0.725-0.497-3.275,0.871-4.402,1.998c-0.943,0.945-0.982,2.772-1.475,4.191
		c-2.773,7.992-7.146,14.886-14.408,19.47c-5.08,3.209-10.729,1.268-12.76-4.344c-1.318-3.654-3.427-7.896-2.617-11.263
		c1.502-6.271-1.713-5.178-4.846-4.922c-0.31-0.242-0.62-0.464-0.934-0.663c-0.261-0.136-0.522-0.257-0.783-0.364
		c0.022-0.102,0.047-0.204,0.07-0.307c-0.193,0.035-0.379,0.08-0.573,0.112c-0.009,0.002-0.019,0.003-0.028,0.006
		c-0.672-0.227-1.332-0.357-1.949-0.321c-2.387,0.139-4.744,0.728-6.993,1.39c-0.614,0.353-1.251,0.759-1.912,1.213
		c-0.069,0.008-0.137,0.021-0.207,0.028c-9.133,5.873-18.268,11.742-27.399,17.613c0.049-0.086,0.092-0.168,0.14-0.254
		c0.013-0.002,0.025-0.004,0.038-0.008c0.449-0.799,0.866-1.584,1.257-2.361c-0.009,0.002-0.018,0.006-0.028,0.01
		c4.507-8.844,5.26-16.21,0.893-20.228c-1.215-1.117-2.866-2.277-4.504-2.933c-0.147,0.034-0.292,0.075-0.438,0.109
		c-0.874-0.311-1.735-0.47-2.512-0.384c-2.378,0.263-4.702,0.973-6.913,1.751c-0.938,0.605-1.922,1.329-2.971,2.207
		c-2.554,2.135-4.419,5.09-6.6,7.671c0.701-2.802,2.378-5.196,2.851-7.809c0.136-0.754-0.184-1.754-0.707-2.665
		c-0.709-0.821-1.442-1.475-2.144-1.442c-1.734,0.077-4.082,2.22-4.91,4.039c-0.038,0.082-0.077,0.164-0.114,0.247
		c-0.099,0.498-0.198,0.997-0.345,1.455c-2.492,7.747-6.496,14.502-13.166,19.233c-1.486,1.455-3.084,2.82-4.824,4.078
		c-0.188,0.137-0.39,0.27-0.602,0.398c-0.173,0.037-0.345,0.084-0.518,0.115c-2.037,1.086-4.729,1.785-6.313,1.102
		c-1.669-0.721-2.823-4.527-2.772-6.939c0.118-5.535,1.034-11.062,1.771-16.573c0.587-4.376,0.385-8.721-4.2-10.543
		c-4.843-1.927-9.093,0.484-11.534,4.604c-2.915,4.919-5.203,10.261-7.28,15.607c-1.417,3.648-3.22,6.367-7.293,7.377
		c0-7.809,0.329-15.231-0.208-22.589c-0.152-2.095-2.505-5.157-4.419-5.676c-1.945-0.53-4.953,1.083-6.833,2.586
		c-1.975,1.578-3.134,4.162-4.7,6.269c-5.904,7.938-11.408,16.229-17.897,23.657c-3.951,4.523-8.402,4.57-12.388,0.729
		c-2.358-1.426-4.064-3.947-4.86-6.717c-0.807-1.631-1.36-3.318-1.457-4.939c-0.365-6.12,0.664-12.458,2.038-18.493
		c0.648-2.849,0.986-4.928-1.275-6.924c-0.714,0.016-1.427,0.026-2.142,0.029c-1.196,1.524-2.573,2.949-2.711,4.484
		c-0.53,5.947-3.969,10.887-6.681,15.427c-4.403,7.368-11.073,13.446-17.163,19.702c-1.844,1.896-4.935,2.578-6.549,3.371
		c-1.526-9.029-1.721-17.807-4.726-25.483c-2.271-5.8-4.132-10.621-1.761-16.598c0.252-0.638-0.092-1.513-0.505-2.415
		c-0.85-0.273-1.646-0.674-2.382-1.197c-0.979,0.305-1.925,0.633-2.443,1.296c-1.81,2.316-2.82,5.26-4.635,7.571
		c-13.688,17.429-30.298,31.15-50.508,40.623c-6.559,3.074-15.348,3.596-17.669,13.293c3.108-0.467,6.066-1.33,8.604-2.881
		c3.599-2.203,6.814-5.021,10.324-7.383c11.582-7.793,23.426-15.211,34.761-23.346c6.861-4.922,12.968-10.899,19.606-16.566
		c1.667,5.745,3.274,11.269,4.865,16.796c0.207,0.717,0.346,1.455,0.487,2.189c1.082,5.652,1.504,8.244,0.184,10.27
		c-0.1,2.17-1.549,4.268-4.353,4.268c-0.407,0-0.782-0.047-1.132-0.129c-0.444,0.252-0.905,0.514-1.406,0.793
		c0.577,4.764,4.41,4.26,7.233,3.711c4.933-0.959,9.518-2.592,13.654-5.002c3.599-3.023,7.193-6.051,10.625-9.258
		c0.015-0.018,0.029-0.033,0.043-0.051c3.749-4.771,7.438-9.592,11.512-14.855c0.847,4.601,1.412,8.613,2.341,12.539
		c2.094,8.832,11.297,13.479,18.813,10.684c0.686-0.436,1.392-0.822,2.114-1.158c3.107-3.705,19.768-26.399,20.585-26.871
		c0.453-0.764,0.889-1.538,1.315-2.322c0.419-1.804,1.343-3.341,3.743-3.341c3.382,0,4.754,3.044,3.754,5.595
		c0,0.004,0,0.006,0,0.009c0,0.042,0.474,0.086,0.469,0.128c0.002,0.051,0.256,0.094,0.256,0.146
		c-0.001,0.301,0.113,0.911,0.109,1.213c0.172,0.4,0.466-0.449,0.651,1.551h-0.545c-0.016,1-0.039,1.129-0.072,1.848
		c0.076,1.657-0.317,3.165-0.317,4.837c0,0.363-0.55,0.534-0.55,0.843v7.883c1,1.992,1.074,4.008,1.178,6.039
		c0.667,0.166,1.554,0.336,2.265,0.514c3.995-4.945,8.431-10.309,12.904-15.846c1.849-4.181,4.688-7.938,6.664-12.11
		c0.609-1.287,1.633-1.848,2.676-1.894c2.072-0.404,4.513,0.75,4.511,3.482c-0.001,1.765-0.036,3.601-0.376,5.354
		c0.043,5.502-0.273,11.022,0.147,16.489c0.513,6.658,5.62,9.801,11.798,7.223c2.302-0.959,4.465-2.328,6.539-3.822
		c0.129-0.039,0.259-0.074,0.388-0.115c0.947-0.695,1.879-1.41,2.796-2.121c2.299-1.785,4.132-4.17,7.046-7.191
		c-0.728,5.592-1.737,10.943-3.043,16.102c0.012,0.004,0.023-0.006,0.035-0.004c-2.685,10.527-6.625,20.49-12.069,29.49h4.893
		c0.988-1,2.146-4.398,3.573-6.416c2.559-7.258,5.236-14.468,7.959-21.667c0.222-0.586,1.251-1.067,1.985-1.224
		c12.782-2.721,25.372-5.969,36.808-12.609c1.908-1.107,3.837-2.175,5.763-3.249c0.073-0.137,0.219-0.207,0.367-0.205
		c0.294-0.164,0.589-0.326,0.883-0.49c-0.19,0.213-0.379,0.425-0.568,0.64c0.052,0.064,0.089,0.143,0.089,0.248
		c0,0.24-0.01,0.477-0.029,0.711c0.032,0.088,0.035,0.186-0.011,0.279c0.047,0.221,0.097,0.441,0.189,0.646
		c0.049,0.111,0.045,0.217,0.013,0.311c1.746,3.266,3.167,7.115,5.885,8.621c5.116,2.832,9.462-0.818,12.896-5.064
		c2.179-2.695,4.764-5.066,7.392-7.818c0.959,6.766,2.785,13.172,9.985,14.313c6.171,0.979,12.286-0.967,17.669-5.502
		c-3.904,10.781-8.35,21.176-13.257,31.35c-1.695,3.516-2.354,5.771,2.145,6.734c3.5-7.65,7.506-15.066,10.277-22.918
		c2.086-5.908,5.541-8.48,11.467-9.416c11.516-1.82,22.949-4.15,34.809-6.34c12.816,13.281,24.268,2.979,35.936-3.842
		c8.656,15.016,12.025,16.037,31.744,9.57c4.598,6.27,10.537,7.107,17.836,4.699c9.16-3.021,16.529-8.271,22.127-15.898
		c0.285-0.094,0.572-0.189,0.859-0.277c2.557-2.529,10.021-10.568,11.221-12.268c0.027,0.049,0.057,0.095,0.084,0.144
		c0.775-1.037,1.463-2.131,2.084-3.265c0.367,0.319,0.74,0.646,1.129,0.984c2.775,3.028,5.338,6.056,5.52,6.69
		c2.084,2.172,4.148,4.322,6.205,6.475c0.516,0.539,0.982,1.129,1.447,1.715c2.178,2.736,3.609,4.582,4.352,6.154
		c-2.473-0.063-4.879-0.428-7.068-1.174c-3.141,0.232-6.293,0.443-9.268,1.283c-2.008,0.568-4.68,3.264-4.738,5.066
		c-0.064,1.971,2.141,5.037,4.092,5.834c4.209,1.721,8.838,2.629,13.383,3.266c5.709,0.801,8.682-0.578,9.07-4.412
		c0.23-0.193,0.463-0.383,0.686-0.578c0.096-1.836,0.074-3.676-0.098-5.525c1.523-0.271,3-0.59,4.445-0.492
		c19.256,1.27,38.496,2.736,57.752,3.975c12.469,0.801,24.953,1.686,37.438,1.793c6.17,0.055,12.35-1.607,18.533-2.402
		c2.74-0.352,5.508-0.475,8.262-0.703C834.643,405.193,834.611,404.645,834.58,404.094z M418.907,402.504
		c0.757-1.412,1.498-2.809,2.234-4.201c-0.009,0-0.018-0.002-0.027-0.002c2.732-5.156,5.374-10.166,8.129-15.069
		c0.038-0.042,0.07-0.087,0.108-0.128c0.387-0.686,0.763-1.38,1.156-2.061c2.122-3.682,5.943-5.714,9.838-3.836
		c4.39,2.119,4.965,6.344,3.296,10.951c-0.084,0.232-0.188,0.463-0.287,0.697C439.881,396.555,428.309,403.645,418.907,402.504z
		 M488.409,382.384c-0.016-0.018-0.031-0.033-0.047-0.051c0.027,0.002,0.052,0.003,0.079,0.006
		C488.43,382.354,488.419,382.369,488.409,382.384z M476.312,399.262c-2.271,2.801-5.899,3.574-8.711,0.453
		c-2.695-2.992-2.492-6.66,0.106-9.59c3.503-3.949,7.708-6.584,13.075-7.533c0.326,0.121,0.652,0.265,0.978,0.442
		c1.835,1.006,2.941,2.366,3.461,3.944C482.351,391.154,479.493,395.338,476.312,399.262z M522.451,401.258
		c3.477-7.844,7.311-14.652,14.092-19.179c1.629-1.089,5.436-1.661,6.184-0.761c1.643,1.975,3.021,5.215,2.627,7.633
		C544.162,396.266,532.641,402.525,522.451,401.258z M562.146,394.25c-0.289-0.1-0.518-0.348-0.512-0.744
		c0.006-0.367-0.182-1.201-0.332-1.268c0.063-0.277,0.113-0.564,0.168-0.846c-0.148-0.279,0.166-0.969,0.186-0.988
		c0.578-3.316,0.93-6.754,2.439-9.571c0.42-0.784,1.27-1.339,2.293-1.8c0.732-0.725,1.623-1.274,2.689-1.536
		c0.291-0.123,0.596-0.231,0.924-0.304c0.402-0.09,0.173-0.075,0.563,0.018c0.023-0.013-0.565-0.022-0.565-0.033
		c0,0.019,0,0.038,0,0.058c3,0.276,2.517,1.138,2.476,2.33c-0.088,2.518-0.987,4.725-2.802,6.344
		c-1.172,1.674-4.057,5.682-4.645,5.682c0,0-1.49,1.889-2.074,2.494C562.678,394.373,562.42,394.387,562.146,394.25z
		 M598.984,385.273c1.063-8.846,1.518-17.822,3.393-26.494c1.342-6.205,4.234-12.176,7.16-17.882
		c0.213-0.414,0.986-1.468,1.035-1.645c0.574-2.158,2.902-3.452,5.043-2.863c0.08,0.022,0.15,0.063,0.227,0.089
		c0.039-0.025,0.078-0.048,0.117-0.073c0.025,0.05,0.055,0.1,0.084,0.15c1.607,0.649,2.619,2.259,2.563,3.963
		c0.082,0.184,1.088,2.406,1.152,3.355c0.904,13.506-6.197,24.209-13.209,34.82c-1.689,2.557-3.885,4.779-5.848,7.156
		C600.131,385.658,599.559,385.465,598.984,385.273z M630.355,399.168c-0.982-12.193,3.162-21.24,11.057-24.134
		C644.693,382.717,639.646,393.736,630.355,399.168z M698.436,409.904c-0.387,0-0.74-0.047-1.07-0.129
		c-4.4-0.57-8.773-1.727-14.307-2.898c4.811-5.676,12.527-7.789,16.266-5.209c0.068,0.047,0.129,0.115,0.195,0.17
		c2.611,0.65,3.445,3.646,2.506,5.797c-0.166,0.164-0.34,0.322-0.543,0.467c-0.418,0.668-1.09,1.172-2.012,1.33
		c-0.082,0.131-0.172,0.27-0.258,0.402C698.967,409.875,698.711,409.904,698.436,409.904z"/>
	<g>
		<path fill="#FFFFFF" d="M310.555,356.576c-2.319-0.828-4.473-1.656-4.971-4.309c2.32-1.656,3.977-5.136,7.953-4.639
			C315.525,351.274,314.2,355.416,310.555,356.576z"/>
	</g>
</g>
<g display="none">
	<linearGradient id="SVGID_1_" gradientUnits="userSpaceOnUse" x1="538.998" y1="305" x2="538.998" y2="196.5967">
		<stop  offset="0.0591" style="stop-color:#808184"/>
		<stop  offset="0.2394" style="stop-color:#FFFFFF"/>
		<stop  offset="0.5" style="stop-color:#808184"/>
		<stop  offset="0.7573" style="stop-color:#FFFFFF"/>
		<stop  offset="0.9409" style="stop-color:#808184"/>
	</linearGradient>
	<path display="inline" fill-rule="evenodd" clip-rule="evenodd" fill="url(#SVGID_1_)" d="M861.578,270.6
		c-2.471,0-4.941,0.043-7.418-0.008c-37.967-0.742-76.01,1.123-113.871-3.801c-1.736-0.227-3.223-0.527-4.541-0.988
		c-0.607,0.109-1.219,0.203-1.832,0.279c-4.299-6.078-8.104-12.111-13.254-16.583c-4.705-4.082-8.59-6.874-9.266-13.269
		c-0.07-0.661-0.738-1.23-1.492-1.23h-0.529c-0.686,0-1.377,0-2.074,0h-0.154c-0.646,0-1.256,0.686-1.484,1.409
		c-0.242,0.238-0.439,0.191-0.566,0.481c-1.18,2.693-1.432,5.639-2.619,8.328c-1,2.264-2.057,4.404-3.154,6.594
		c-5.52,9.117-13.566,15.89-24.404,20.21c-5.23,2.082-10.775,2.555-14.439-0.824c4.912-7.885,9.688-14.92,13.76-22.331
		c2.412-4.391,0.49-11.275-2.992-12.494c-4.861-1.703-8.428,0.91-10.939,4.72c-4.674,7.092-6.906,14.858-5.639,23.468
		c0.186,1.242-0.066,3.383-0.828,3.797c-5.717,3.125-11.797,5.269-18.26,2.484c-8.037-3.465-8.885-11.199-3.385-17.426
		c6.613-7.491,12.955-15.513,17.748-24.223c3.24-5.884,4.623-13.313,4.877-20.124c0.104-2.793-1.582-5.654-3.291-8.547
		c-0.867-0.43-1.711-0.917-2.525-1.447c-1.234-0.803-2.432-1.651-3.666-2.414c-0.721-0.026-1.441-0.047-2.162-0.065
		c-9.24,2.14-13.693,7.975-15.596,19.271c-1.705,10.135-3.832,20.512-3.242,30.633c0.576,9.894-4.502,14.3-11.521,18.302
		c-2.426,1.383-5.082,2.551-7.781,3.254c-1.221,0.867-2.809,1.012-4.141,0.596c-3.697,0.035-6.889-1.385-9.098-4.359
		c3.697-3.65,7.34-6.92,10.631-10.404c0.656-2.006,1.363-3.993,2.211-5.901c-0.107-3.029-0.887-6.866-1.578-7.593
		c-2.965-3.124-6.99-2.692-10.221-0.031c-5.053,4.159-8.092,9.179-6.111,16.226c0.471,1.672,0.037,4.975-0.957,5.445
		c-4.373,2.049-9.104,3.336-13.705,4.898c-0.203-0.492-0.406-0.986-0.609-1.477c0.703-0.512,1.436-0.99,2.107-1.539
		c5.123-4.18,6.717-13.292,2.787-17.568c-4.969-5.409-9.371-6.471-17.074-0.315c-2.602,2.076-4.533,4.989-6.771,7.52
		c0.764-2.787,2.494-5.142,3.027-7.744c0.293-1.439-1.051-3.829-2.379-4.74c-0.725-0.497-3.275,0.871-4.402,1.998
		c-0.943,0.945-0.982,2.772-1.475,4.191c-2.773,7.992-7.146,14.886-14.407,19.47c-5.08,3.209-10.729,1.268-12.76-4.344
		c-1.318-3.654-3.427-7.896-2.617-11.263c1.502-6.271-1.713-5.178-4.846-4.922c-0.31-0.242-0.62-0.464-0.934-0.663
		c-0.261-0.136-0.522-0.257-0.783-0.364c0.022-0.102,0.047-0.204,0.07-0.307c-0.193,0.035-0.379,0.08-0.573,0.112
		c-0.009,0.002-0.019,0.003-0.028,0.006c-0.672-0.227-1.332-0.357-1.949-0.321c-2.387,0.139-4.744,0.728-6.993,1.39
		c-0.614,0.353-1.251,0.759-1.912,1.213c-0.069,0.008-0.137,0.021-0.207,0.028c-9.133,5.873-18.268,11.742-27.399,17.613
		c0.049-0.086,0.092-0.168,0.14-0.254c0.013-0.002,0.025-0.004,0.038-0.008c0.449-0.799,0.866-1.584,1.257-2.361
		c-0.009,0.002-0.018,0.006-0.028,0.01c4.507-8.844,5.26-16.21,0.893-20.228c-1.215-1.117-2.866-2.277-4.504-2.933
		c-0.147,0.034-0.292,0.075-0.438,0.109c-0.874-0.311-1.735-0.47-2.512-0.384c-2.378,0.263-4.702,0.973-6.913,1.751
		c-0.938,0.605-1.922,1.329-2.971,2.207c-2.554,2.135-4.419,5.09-6.6,7.671c0.701-2.802,2.378-5.196,2.851-7.809
		c0.136-0.754-0.184-1.754-0.707-2.665c-0.709-0.821-1.442-1.475-2.144-1.442c-1.734,0.077-4.082,2.22-4.91,4.039
		c-0.038,0.082-0.077,0.164-0.114,0.247c-0.099,0.498-0.198,0.997-0.345,1.455c-2.492,7.747-6.496,14.502-13.166,19.233
		c-1.486,1.455-3.084,2.82-4.824,4.078c-0.188,0.137-0.39,0.27-0.602,0.398c-0.173,0.037-0.345,0.084-0.518,0.115
		c-2.037,1.086-4.729,1.785-6.313,1.102c-1.669-0.721-2.823-4.527-2.772-6.939c0.118-5.535,1.034-11.062,1.771-16.573
		c0.587-4.376,0.385-8.721-4.2-10.543c-4.843-1.927-9.093,0.484-11.534,4.604c-2.915,4.919-5.203,10.261-7.28,15.607
		c-1.417,3.648-3.22,6.367-7.293,7.377c0-7.809,0.329-15.231-0.208-22.589c-0.152-2.095-2.505-5.157-4.419-5.676
		c-1.945-0.53-4.953,1.083-6.833,2.586c-1.975,1.578-3.134,4.162-4.7,6.269c-5.904,7.938-11.408,16.229-17.897,23.657
		c-3.951,4.523-8.402,4.57-12.388,0.729c-2.358-1.426-4.064-3.947-4.86-6.717c-0.807-1.631-1.36-3.318-1.457-4.939
		c-0.365-6.12,0.664-12.458,2.038-18.493c0.648-2.849,0.986-4.928-1.275-6.924c-0.714,0.016-1.427,0.026-2.142,0.029
		c-1.196,1.524-2.573,2.949-2.711,4.484c-0.53,5.947-3.969,10.887-6.681,15.427c-4.403,7.368-11.073,13.446-17.163,19.702
		c-1.844,1.896-4.935,2.578-6.549,3.371c-1.526-9.029-1.721-17.807-4.726-25.483c-2.271-5.8-4.132-10.621-1.761-16.598
		c0.252-0.638-0.092-1.513-0.505-2.415c-0.85-0.273-1.646-0.674-2.382-1.197c-0.979,0.305-1.925,0.633-2.443,1.296
		c-1.81,2.316-2.82,5.26-4.635,7.571c-13.688,17.429-30.298,31.15-50.508,40.623c-6.559,3.074-15.348,3.596-17.669,13.293
		c3.108-0.467,6.066-1.33,8.604-2.881c3.599-2.203,6.814-5.021,10.324-7.383c11.582-7.793,23.426-15.211,34.761-23.346
		c6.861-4.922,12.968-10.899,19.606-16.566c1.667,5.745,3.274,11.269,4.865,16.796c0.207,0.717,0.346,1.455,0.487,2.189
		c1.082,5.652,1.504,8.244,0.184,10.27c-0.1,2.17-1.549,4.268-4.353,4.268c-0.407,0-0.782-0.047-1.132-0.129
		c-0.444,0.252-0.905,0.514-1.406,0.793c0.577,4.764,4.41,4.26,7.233,3.711c4.933-0.959,9.518-2.592,13.654-5.002
		c3.599-3.023,7.193-6.051,10.625-9.258c0.015-0.018,0.029-0.033,0.043-0.051c3.749-4.771,7.438-9.592,11.512-14.855
		c0.847,4.601,1.412,8.613,2.341,12.539c2.094,8.832,11.297,13.479,18.813,10.684c0.686-0.436,1.392-0.822,2.114-1.158
		c3.107-3.705,19.768-26.399,20.585-26.871c0.453-0.764,0.889-1.538,1.315-2.322c0.419-1.804,1.343-3.341,3.744-3.341
		c3.382,0,4.755,3.044,3.755,5.595c0,0.004,0,0.006,0,0.009c0,0.042,0.473,0.086,0.468,0.128c0.002,0.051,0.256,0.094,0.256,0.146
		c-0.001,0.301,0.112,1.157,0.109,1.46c0.172,0.4,0.466-0.202,0.651,1.798h-0.545c-0.016,1-0.039,0.882-0.072,1.601
		c0.076,1.657-0.317,3.042-0.317,4.714c0,0.363-0.549,0.411-0.549,0.719v7.883c1,1.992,1.073,4.008,1.177,6.039
		c0.667,0.166,1.554,0.336,2.265,0.514c3.995-4.945,8.431-10.309,12.904-15.846c1.849-4.181,4.688-7.938,6.664-12.11
		c0.609-1.287,1.633-1.848,2.676-1.894c2.072-0.404,4.513,0.75,4.511,3.482c-0.001,1.765-0.036,3.601-0.376,5.354
		c0.043,5.502-0.273,11.022,0.147,16.489c0.513,6.658,5.62,9.801,11.798,7.223c2.302-0.959,4.465-2.328,6.539-3.822
		c0.129-0.039,0.259-0.074,0.388-0.115c0.947-0.695,1.879-1.41,2.796-2.121c2.299-1.785,4.132-4.17,7.046-7.191
		c-0.728,5.592-1.737,10.943-3.043,16.102c0.012,0.004,0.023,0.241,0.035,0.243C436.842,285.79,432.902,296,427.458,305h4.893
		c0.988-1,2.146-4.646,3.573-6.663c2.559-7.258,5.236-14.591,7.959-21.79c0.222-0.586,1.251-1.129,1.985-1.286
		c12.782-2.721,25.372-6,36.808-12.64c1.908-1.107,3.837-2.19,5.763-3.264c0.073-0.137,0.219-0.215,0.367-0.213
		c0.294-0.164,0.589-0.33,0.883-0.494c-0.19,0.213-0.379,0.423-0.568,0.638c0.052,0.064,0.089,0.142,0.089,0.247
		c0,0.24-0.01,0.476-0.029,0.71c0.032,0.088,0.035,0.186-0.011,0.279c0.047,0.221,0.097,0.441,0.189,0.646
		c0.049,0.111,0.045,0.217,0.013,0.311c1.746,3.266,3.167,7.115,5.885,8.621c5.116,2.832,9.462-0.818,12.896-5.064
		c2.179-2.695,4.764-5.066,7.392-7.818c0.959,6.766,2.785,13.172,9.985,14.313c6.171,0.979,12.286-0.967,17.669-5.502
		c-3.903,10.781-8.35,21.176-13.257,31.35c-1.695,3.516-2.354,5.771,2.145,6.734c3.5-7.65,7.506-15.066,10.276-22.918
		c2.086-5.908,5.541-8.48,11.467-9.416c11.516-1.82,22.949-4.15,34.809-6.34c12.816,13.281,24.268,2.979,35.936-3.842
		c8.656,15.016,12.025,16.037,31.744,9.57c4.598,6.27,10.537,7.107,17.836,4.699c9.16-3.021,16.529-8.271,22.127-15.898
		c0.285-0.094,0.572-0.189,0.859-0.277c2.557-2.529,10.021-10.568,11.221-12.268c0.027,0.049,0.057,0.095,0.084,0.144
		c0.775-1.037,1.463-2.131,2.084-3.265c0.367,0.319,0.74,0.646,1.129,0.984c2.775,3.028,5.338,6.056,5.52,6.69
		c2.084,2.172,4.148,4.322,6.205,6.475c0.516,0.539,0.982,1.129,1.447,1.715c2.178,2.736,3.609,4.582,4.352,6.154
		c-2.473-0.063-4.879-0.428-7.068-1.174c-3.141,0.232-6.293,0.443-9.268,1.283c-2.008,0.568-4.68,3.264-4.738,5.066
		c-0.064,1.971,2.141,5.037,4.092,5.834c4.209,1.721,8.838,2.629,13.383,3.266c5.709,0.801,8.682-0.578,9.07-4.412
		c0.23-0.193,0.463-0.383,0.686-0.578c0.096-1.836,0.074-3.676-0.098-5.525c1.523-0.271,3-0.59,4.445-0.492
		c19.256,1.27,38.496,2.736,57.752,3.975c12.469,0.801,24.953,1.686,37.438,1.793c6.17,0.055,12.35-1.607,18.533-2.402
		c2.74-0.352,5.508-0.475,8.262-0.703C861.641,271.7,861.609,271.151,861.578,270.6z M445.905,269.01
		c0.757-1.412,1.498-2.809,2.234-4.201c-0.009,0-0.018-0.002-0.027-0.002c2.732-5.156,5.374-10.166,8.129-15.069
		c0.038-0.042,0.07-0.087,0.108-0.128c0.387-0.686,0.763-1.38,1.156-2.061c2.122-3.682,5.943-5.714,9.838-3.836
		c4.39,2.119,4.965,6.344,3.296,10.951c-0.084,0.232-0.188,0.463-0.287,0.697C466.88,263.061,455.308,270.151,445.905,269.01z
		 M515.407,248.891c-0.016-0.018-0.031-0.033-0.047-0.051c0.027,0.002,0.052,0.003,0.079,0.006
		C515.429,248.86,515.418,248.875,515.407,248.891z M503.311,265.768c-2.271,2.801-5.899,3.574-8.711,0.453
		c-2.695-2.992-2.492-6.66,0.106-9.59c3.503-3.949,7.708-6.584,13.075-7.533c0.326,0.121,0.652,0.265,0.978,0.442
		c1.835,1.006,2.941,2.366,3.461,3.944C509.35,257.661,506.491,261.844,503.311,265.768z M549.449,267.764
		c3.477-7.844,7.311-14.652,14.092-19.179c1.629-1.089,5.436-1.661,6.184-0.761c1.643,1.975,3.021,5.215,2.627,7.633
		C571.16,262.772,559.639,269.032,549.449,267.764z M589.145,260.756c-0.289-0.1-0.518-0.348-0.512-0.744
		c0.006-0.367-0.182-1.201-0.332-1.268c0.063-0.277,0.113-0.564,0.168-0.846c-0.148-0.279,0.166-0.969,0.186-0.988
		c0.578-3.316,0.93-6.754,2.439-9.571c0.42-0.784,1.27-1.339,2.293-1.8c0.732-0.725,1.623-1.274,2.689-1.536
		c0.291-0.123,0.596-0.231,0.924-0.304c0.402-0.09,0.175-0.075,0.565,0.018c0.023-0.013-0.565-0.022-0.565-0.033
		c0,0.019,0,0.038,0,0.058c3,0.276,2.517,1.138,2.476,2.33c-0.088,2.518-0.989,4.725-2.804,6.344
		c-1.172,1.674-4.057,5.682-4.645,5.682c0,0-1.49,1.889-2.074,2.494C589.676,260.879,589.418,260.893,589.145,260.756z
		 M625.982,251.78c1.063-8.846,1.518-17.822,3.393-26.494c1.342-6.205,4.234-12.176,7.16-17.882
		c0.213-0.414,0.986-1.468,1.035-1.645c0.574-2.158,2.902-3.452,5.043-2.863c0.08,0.022,0.15,0.063,0.227,0.089
		c0.039-0.025,0.078-0.048,0.117-0.073c0.025,0.05,0.055,0.1,0.084,0.15c1.607,0.649,2.619,2.259,2.563,3.963
		c0.082,0.184,1.088,2.406,1.152,3.355c0.904,13.506-6.197,24.209-13.209,34.82c-1.689,2.557-3.885,4.779-5.848,7.156
		C627.129,252.165,626.557,251.971,625.982,251.78z M657.354,265.674c-0.982-12.193,3.162-21.24,11.057-24.134
		C671.691,249.224,666.645,260.243,657.354,265.674z M725.434,276.411c-0.387,0-0.74-0.047-1.07-0.129
		c-4.4-0.57-8.773-1.727-14.307-2.898c4.811-5.676,12.527-7.789,16.266-5.209c0.068,0.047,0.129,0.115,0.195,0.17
		c2.611,0.65,3.445,3.646,2.506,5.797c-0.166,0.164-0.34,0.322-0.543,0.467c-0.418,0.668-1.09,1.172-2.012,1.33
		c-0.082,0.131-0.172,0.27-0.258,0.402C725.965,276.381,725.709,276.411,725.434,276.411z"/>
	<g display="inline">
		<linearGradient id="SVGID_2_" gradientUnits="userSpaceOnUse" x1="337.021" y1="223.1274" x2="337.021" y2="214.1323">
			<stop  offset="0.0591" style="stop-color:#808184"/>
			<stop  offset="0.2394" style="stop-color:#FFFFFF"/>
			<stop  offset="0.7573" style="stop-color:#FFFFFF"/>
			<stop  offset="0.9409" style="stop-color:#808184"/>
		</linearGradient>
		<path fill="url(#SVGID_2_)" d="M337.553,223.127c-2.319-0.828-4.473-1.656-4.971-4.308c2.32-1.656,3.977-5.136,7.953-4.639
			C342.524,217.826,341.198,221.968,337.553,223.127z"/>
	</g>
</g>
</svg>
